# Blender v2.92.0 OBJ File: ''
# www.blender.org
mtllib asteroid_a.mtl
o Cube
v 1.366708 0.810023 -1.914404
v 1.250899 -1.280997 -1.454461
v 0.610202 0.622644 0.685944
v 0.523651 -0.746302 0.806660
v -1.767385 1.000000 -1.562164
v -1.289440 -0.989226 -1.150828
v -1.000000 1.000000 1.000000
v -1.000000 -1.000000 1.000000
v -2.026801 -1.176832 0.937137
v 1.179337 0.757625 -0.007385
v -2.607003 0.916729 -0.622169
v 1.000000 -1.000000 0.000000
v 1.273199 0.149957 -1.992772
v -1.542060 -0.148457 1.271766
v 1.000000 0.000000 1.000000
v -2.093608 -0.474191 -1.422471
v 1.484271 0.000000 0.000000
v -3.138998 -0.488575 1.062932
v -0.161645 -1.472042 -1.240923
v -0.158209 0.704468 1.193133
v 0.000000 -1.000000 1.000000
v 0.000000 1.000000 -1.995619
v 0.000000 -1.736381 0.000000
v 0.043947 1.532919 -0.272545
v 0.019397 -0.801142 -2.422394
v -0.350151 -0.347116 1.216692
vt 0.750000 0.625000
vt 0.875000 0.750000
vt 0.750000 0.750000
vt 0.500000 0.875000
vt 0.625000 1.000000
vt 0.500000 1.000000
vt 0.625000 0.125000
vt 0.500000 0.250000
vt 0.500000 0.125000
vt 0.250000 0.625000
vt 0.375000 0.750000
vt 0.250000 0.750000
vt 0.500000 0.625000
vt 0.625000 0.750000
vt 0.500000 0.750000
vt 0.625000 0.375000
vt 0.500000 0.500000
vt 0.500000 0.375000
vt 0.625000 0.500000
vt 0.250000 0.500000
vt 0.375000 0.625000
vt 0.500000 0.000000
vt 0.875000 0.500000
vt 0.750000 0.500000
vt 0.375000 0.125000
vt 0.375000 0.000000
vt 0.375000 0.500000
vt 0.375000 0.375000
vt 0.375000 0.250000
vt 0.375000 1.000000
vt 0.375000 0.875000
vt 0.625000 0.625000
vt 0.125000 0.500000
vt 0.125000 0.625000
vt 0.625000 0.250000
vt 0.125000 0.750000
vt 0.875000 0.625000
vt 0.625000 0.875000
vt 0.625000 0.000000
vn 0.1814 0.8452 0.5027
vn 0.0776 0.1947 0.9778
vn -0.9153 -0.1159 -0.3857
vn 0.5202 -0.6877 0.5064
vn 0.7085 0.6166 0.3431
vn 0.1553 0.2293 -0.9609
vn 0.9855 -0.1261 -0.1139
vn 0.5754 -0.7814 -0.2414
vn -0.2417 0.7814 0.5754
vn -0.0719 0.9534 -0.2930
vn -0.0054 -0.3071 0.9517
vn 0.8753 -0.4239 0.2329
vn 0.0441 -0.8716 -0.4882
vn 0.6345 -0.5466 0.5466
vn -0.4645 -0.8522 -0.2406
vn 0.0000 -0.3150 0.9491
vn 0.3859 -0.0975 0.9174
vn -0.3742 -0.7806 -0.5006
vn 0.5499 0.8317 0.0769
vn -0.3474 -0.9151 -0.2049
vn -0.4266 0.0087 -0.9044
vn 0.0906 -0.7565 0.6477
vn 0.0235 0.4619 0.8866
vn 0.4117 0.7698 0.4878
vn -0.2464 0.9493 0.1954
vn -0.2035 0.0590 0.9773
vn -0.7464 0.1029 -0.6575
vn 0.5077 -0.6894 0.5166
vn 0.7105 0.2922 0.6401
vn 0.0738 0.1073 -0.9915
vn 0.9226 0.3723 0.1009
vn 0.1626 -0.9632 0.2141
vn -0.6457 0.4506 0.6165
vn -0.2122 0.9717 -0.1035
vn -0.0654 -0.2807 0.9576
vn 0.9924 -0.0566 -0.1094
vn 0.5100 -0.3098 -0.8024
vn 0.8251 -0.3996 0.3996
vn -0.5309 -0.8162 -0.2280
vn -0.0074 -0.3083 0.9513
vn 0.2420 -0.3851 0.8906
vn -0.3519 -0.8030 -0.4810
vn 0.1487 0.9436 -0.2956
vn -0.3991 -0.9060 -0.1410
vn -0.2323 0.2219 -0.9470
vn 0.0000 -0.8052 0.5930
vn 0.5431 -0.0804 0.8358
vn 0.4064 0.7703 0.4914
usemtl Material
s off
f 24/1/1 7/2/1 20/3/1
f 26/4/2 7/5/2 14/6/2
f 11/7/3 16/8/3 18/9/3
f 23/10/4 4/11/4 21/12/4
f 17/13/5 3/14/5 15/15/5
f 22/16/6 13/17/6 25/18/6
f 1/19/7 17/13/7 13/17/7
f 19/20/8 12/21/8 23/10/8
f 14/22/9 11/7/9 18/9/9
f 5/23/10 24/1/10 22/24/10
f 14/22/11 9/25/11 8/26/11
f 2/27/12 17/13/12 12/21/12
f 25/18/13 2/27/13 19/28/13
f 12/21/14 15/15/14 4/11/14
f 9/25/15 16/8/15 6/29/15
f 26/4/16 8/30/16 21/31/16
f 4/11/17 26/4/17 21/31/17
f 6/29/18 25/18/18 19/28/18
f 1/19/19 24/1/19 10/32/19
f 6/33/20 23/10/20 9/34/20
f 5/35/21 25/18/21 16/8/21
f 23/10/22 8/36/22 9/34/22
f 3/14/23 26/4/23 15/15/23
f 24/1/24 3/14/24 10/32/24
f 24/1/25 11/37/25 7/2/25
f 26/4/26 20/38/26 7/5/26
f 11/7/27 5/35/27 16/8/27
f 23/10/28 12/21/28 4/11/28
f 17/13/29 10/32/29 3/14/29
f 22/16/30 1/19/30 13/17/30
f 1/19/31 10/32/31 17/13/31
f 19/20/32 2/27/32 12/21/32
f 14/22/33 7/39/33 11/7/33
f 5/23/34 11/37/34 24/1/34
f 14/22/35 18/9/35 9/25/35
f 2/27/36 13/17/36 17/13/36
f 25/18/37 13/17/37 2/27/37
f 12/21/38 17/13/38 15/15/38
f 9/25/39 18/9/39 16/8/39
f 26/4/40 14/6/40 8/30/40
f 4/11/41 15/15/41 26/4/41
f 6/29/42 16/8/42 25/18/42
f 1/19/43 22/24/43 24/1/43
f 6/33/44 19/20/44 23/10/44
f 5/35/45 22/16/45 25/18/45
f 23/10/46 21/12/46 8/36/46
f 3/14/47 20/38/47 26/4/47
f 24/1/48 20/3/48 3/14/48
